<?xml version="1.0" encoding="UTF-8" standalone="no"?>
<!-- Generator: Gravit.io -->
<svg xmlns="http://www.w3.org/2000/svg" xmlns:xlink="http://www.w3.org/1999/xlink" style="isolation:isolate" viewBox="0 0 405.211 143.693" width="405.211" height="143.693"><defs><clipPath id="_clipPath_9FT4qdhtNKaWhlx7oJlLtdM1StwyR4sD"><rect width="405.211" height="143.693"/></clipPath></defs><g clip-path="url(#_clipPath_9FT4qdhtNKaWhlx7oJlLtdM1StwyR4sD)"><clipPath id="_clipPath_INYjyOoa7tqBFAvIf7zNYERnHrXHLLnD"><rect x="0" y="0" width="405.211" height="143.693" transform="matrix(1,0,0,1,0,0)" fill="rgb(255,255,255)"/></clipPath><g clip-path="url(#_clipPath_INYjyOoa7tqBFAvIf7zNYERnHrXHLLnD)"><g id="Group"><g id="XMLID_14_"><g id="XMLID_76_"><path d=" M 147.994 60.551 L 151.543 60.551 L 151.543 40.364 L 147.994 40.364 L 147.994 34.596 L 162.325 34.596 C 164.765 34.596 166.851 34.685 168.67 35.217 C 172.53 36.415 175.015 39.476 175.015 44.135 C 175.015 48.35 173.063 51.101 169.868 52.831 L 169.868 52.92 C 170.09 53.053 170.356 53.187 170.578 53.364 C 170.978 53.675 171.466 54.119 171.82 54.828 L 174.26 59.531 C 174.659 60.286 175.28 60.552 176.301 60.552 L 177.41 60.552 L 177.41 66.32 L 172.175 66.32 C 169.646 66.32 168.581 65.699 167.694 63.968 L 163.834 56.559 C 163.301 55.538 162.725 55.184 161.083 55.184 L 159.486 55.184 L 159.486 60.552 L 162.814 60.552 L 162.814 66.32 L 147.995 66.32 L 147.995 60.551 L 147.994 60.551 L 147.994 60.551 Z  M 163.079 48.971 C 165.564 48.971 167.117 47.728 167.117 44.844 C 167.117 43.38 166.762 42.004 165.387 41.339 C 164.677 40.984 163.657 40.807 162.326 40.807 L 159.486 40.807 L 159.486 48.971 L 163.079 48.971 L 163.079 48.971 Z " fill="rgb(255,255,251)"/><path d=" M 191.433 42.937 C 198.266 42.937 202.081 47.64 202.081 53.985 C 202.081 54.34 202.037 54.917 201.992 55.405 L 201.903 56.292 L 187.395 56.292 C 187.972 59.265 190.235 60.507 192.719 60.507 C 194.449 60.507 196.002 59.931 197.2 59.398 C 197.91 59.087 198.575 58.732 199.152 58.333 L 201.947 63.657 C 201.193 64.233 200.305 64.766 199.329 65.254 C 197.599 66.097 195.247 66.851 192.097 66.851 C 183.933 66.851 179.541 60.95 179.541 54.871 C 179.542 48.172 184.067 42.937 191.433 42.937 Z  M 194.139 52.077 C 194.139 50.258 192.985 48.705 191.255 48.705 C 188.992 48.705 187.972 50.303 187.572 52.077 L 194.139 52.077 L 194.139 52.077 Z " fill="rgb(255,255,251)"/><path d=" M 204.567 58.244 L 211 58.244 L 211 59.398 C 211 60.507 212.109 61.039 214.328 61.039 C 216.191 61.039 217.123 60.595 217.123 59.708 C 217.123 58.288 215.614 58.066 212.642 57.134 C 209.314 56.07 205.366 54.383 205.366 49.814 C 205.366 44.445 210.779 42.937 215.171 42.937 C 218.72 42.937 223.911 44.18 223.911 47.907 L 223.911 51.012 L 217.478 51.012 L 217.478 49.991 C 217.478 49.281 216.813 48.749 215.171 48.749 C 213.929 48.749 212.997 49.016 212.997 49.903 C 212.997 51.278 214.816 51.811 216.99 52.387 C 220.407 53.319 224.755 54.739 224.755 59.486 C 224.755 64.633 219.786 66.851 214.328 66.851 C 210.246 66.851 204.567 65.076 204.567 61.305 L 204.567 58.244 L 204.567 58.244 Z " fill="rgb(255,255,251)"/><path d=" M 230.214 69.646 L 230.214 49.991 C 230.214 49.326 229.903 49.016 229.238 49.016 L 227.108 49.016 L 227.108 43.469 L 234.163 43.469 C 236.426 43.469 237.091 44.534 237.091 45.377 L 237.091 45.51 L 237.091 45.909 C 237.091 45.998 237.091 46.042 237.047 46.087 L 237.136 46.087 C 237.58 45.51 238.112 44.978 238.778 44.489 C 239.887 43.646 241.618 42.936 244.058 42.936 C 250.269 42.936 254.351 47.817 254.351 54.916 C 254.351 62.148 249.781 66.851 243.703 66.851 C 241.795 66.851 240.42 66.274 239.399 65.742 C 238.822 65.432 238.334 65.077 237.891 64.677 L 237.802 64.677 C 237.802 64.81 237.802 64.988 237.846 65.21 C 237.89 65.565 237.89 66.054 237.89 66.63 L 237.89 69.647 L 240.774 69.647 L 240.774 75.193 L 227.331 75.193 L 227.331 69.646 L 230.214 69.646 L 230.214 69.646 Z  M 242.149 60.506 C 244.589 60.506 246.63 58.598 246.63 55.049 C 246.63 51.632 244.811 49.414 242.149 49.414 C 239.842 49.414 237.667 51.144 237.667 55.049 C 237.667 57.756 239.132 60.506 242.149 60.506 Z " fill="rgb(255,255,251)"/><path d=" M 269.57 42.937 C 276.802 42.937 282.57 47.729 282.57 54.961 C 282.57 62.104 276.802 66.852 269.615 66.852 C 262.427 66.852 256.659 62.105 256.659 54.961 C 256.659 47.728 262.471 42.937 269.57 42.937 Z  M 269.615 60.462 C 272.41 60.462 274.806 58.377 274.806 54.961 C 274.806 51.545 272.41 49.326 269.615 49.326 C 266.82 49.326 264.424 51.544 264.424 54.961 C 264.424 58.377 266.819 60.462 269.615 60.462 Z " fill="rgb(255,255,251)"/><path d=" M 285.544 60.773 L 288.428 60.773 L 288.428 49.991 C 288.428 49.326 288.117 49.016 287.452 49.016 L 285.322 49.016 L 285.322 43.469 L 292.598 43.469 C 294.683 43.469 295.748 44.49 295.748 46.043 L 295.748 46.797 L 295.748 47.152 C 295.748 47.196 295.748 47.285 295.704 47.33 L 295.793 47.33 C 296.192 46.487 296.769 45.777 297.523 45.112 C 298.765 44.003 300.673 42.938 303.557 42.938 C 307.861 42.938 311.277 45.112 311.277 51.501 L 311.277 60.774 L 314.161 60.774 L 314.161 66.32 L 303.602 66.32 L 303.602 52.921 C 303.602 50.792 302.759 49.904 301.029 49.904 C 297.612 49.904 296.104 53.453 296.104 56.647 L 296.104 60.774 L 298.988 60.774 L 298.988 66.32 L 285.545 66.32 L 285.545 60.773 L 285.544 60.773 L 285.544 60.773 Z " fill="rgb(255,255,251)"/><path d=" M 316.294 58.244 L 322.727 58.244 L 322.727 59.398 C 322.727 60.507 323.836 61.039 326.055 61.039 C 327.918 61.039 328.85 60.595 328.85 59.708 C 328.85 58.288 327.341 58.066 324.369 57.134 C 321.041 56.07 317.093 54.383 317.093 49.814 C 317.093 44.445 322.506 42.937 326.898 42.937 C 330.447 42.937 335.639 44.18 335.639 47.907 L 335.639 51.012 L 329.206 51.012 L 329.206 49.991 C 329.206 49.281 328.541 48.749 326.899 48.749 C 325.657 48.749 324.725 49.016 324.725 49.903 C 324.725 51.278 326.544 51.811 328.718 52.387 C 332.135 53.319 336.483 54.739 336.483 59.486 C 336.483 64.633 331.514 66.851 326.056 66.851 C 321.974 66.851 316.295 65.076 316.295 61.305 L 316.295 58.244 L 316.294 58.244 L 316.294 58.244 Z " fill="rgb(255,255,251)"/><path d=" M 339.544 60.773 L 342.428 60.773 L 342.428 49.016 L 339.322 49.016 L 339.322 43.469 L 350.104 43.469 L 350.104 60.773 L 352.988 60.773 L 352.988 66.319 L 339.544 66.319 L 339.544 60.773 L 339.544 60.773 L 339.544 60.773 Z  M 342.517 34.596 L 350.015 34.596 L 350.015 40.586 L 342.517 40.586 L 342.517 34.596 L 342.517 34.596 Z " fill="rgb(255,255,251)"/><path d=" M 354.275 43.469 L 366.432 43.469 L 366.432 49.016 L 364.392 49.016 L 367.009 57.268 C 367.32 57.934 367.364 58.732 367.497 59.309 L 367.63 60.285 L 367.808 60.285 L 367.941 59.309 C 368.074 58.732 368.208 57.934 368.429 57.268 L 371.047 49.016 L 369.006 49.016 L 369.006 43.469 L 381.163 43.469 L 381.163 49.016 L 378.59 49.016 L 372.245 66.319 L 363.194 66.319 L 356.85 49.016 L 354.276 49.016 L 354.276 43.469 L 354.275 43.469 L 354.275 43.469 Z " fill="rgb(255,255,251)"/><path d=" M 394.563 42.937 C 401.395 42.937 405.211 47.64 405.211 53.985 C 405.211 54.34 405.167 54.917 405.122 55.405 L 405.033 56.292 L 390.525 56.292 C 391.102 59.265 393.365 60.507 395.849 60.507 C 397.579 60.507 399.132 59.931 400.33 59.398 C 401.04 59.087 401.705 58.732 402.282 58.333 L 405.077 63.657 C 404.323 64.233 403.436 64.766 402.46 65.254 C 400.73 66.097 398.378 66.851 395.228 66.851 C 387.064 66.851 382.672 60.95 382.672 54.871 C 382.672 48.172 387.198 42.937 394.563 42.937 Z  M 397.269 52.077 C 397.269 50.258 396.115 48.705 394.385 48.705 C 392.122 48.705 391.102 50.303 390.703 52.077 L 397.269 52.077 L 397.269 52.077 Z " fill="rgb(255,255,251)"/><path d=" M 147.372 101.973 L 150.833 101.973 L 152.519 81.786 L 148.97 81.786 L 148.97 76.018 L 161.437 76.018 L 166.761 91.724 C 167.116 92.745 167.338 93.499 167.471 94.076 C 167.56 94.386 167.604 94.697 167.648 95.008 L 167.737 95.008 C 167.781 94.698 167.826 94.387 167.915 94.076 C 168.048 93.499 168.314 92.745 168.625 91.724 L 173.949 76.018 L 186.416 76.018 L 186.416 81.786 L 182.867 81.786 L 184.553 101.973 L 188.014 101.973 L 188.014 107.741 L 173.639 107.741 L 173.639 101.973 L 176.789 101.973 L 176.035 90.57 C 175.991 89.905 176.035 89.018 176.079 88.307 L 176.212 87.021 L 176.034 87.021 C 175.99 87.42 175.901 87.819 175.812 88.219 C 175.679 88.885 175.502 89.728 175.191 90.393 L 171.02 101.973 L 164.365 101.973 L 160.194 90.393 C 159.972 89.727 159.706 88.884 159.573 88.219 C 159.484 87.82 159.396 87.421 159.351 87.021 L 159.174 87.021 L 159.307 88.307 C 159.351 89.017 159.396 89.904 159.351 90.57 L 158.597 101.973 L 161.747 101.973 L 161.747 107.741 L 147.372 107.741 L 147.372 101.973 L 147.372 101.973 L 147.372 101.973 Z " fill="rgb(255,255,251)"/><path d=" M 202.26 84.359 C 209.093 84.359 212.908 89.062 212.908 95.407 C 212.908 95.762 212.864 96.339 212.819 96.827 L 212.73 97.714 L 198.222 97.714 C 198.799 100.687 201.062 101.929 203.546 101.929 C 205.276 101.929 206.829 101.353 208.027 100.82 C 208.737 100.509 209.402 100.154 209.979 99.755 L 212.774 105.079 C 212.02 105.655 211.132 106.188 210.156 106.676 C 208.426 107.519 206.074 108.274 202.924 108.274 C 194.76 108.274 190.368 102.373 190.368 96.294 C 190.369 89.594 194.895 84.359 202.26 84.359 Z  M 204.966 93.499 C 204.966 91.68 203.812 90.127 202.082 90.127 C 199.819 90.127 198.799 91.724 198.399 93.499 L 204.966 93.499 L 204.966 93.499 Z " fill="rgb(255,255,251)"/><path d=" M 216.06 102.195 L 218.944 102.195 L 218.944 91.413 C 218.944 90.748 218.633 90.438 217.968 90.438 L 215.838 90.438 L 215.838 84.891 L 223.114 84.891 C 225.199 84.891 226.264 85.912 226.264 87.465 L 226.264 88.219 L 226.264 88.574 C 226.264 88.618 226.264 88.707 226.22 88.752 L 226.309 88.752 C 226.708 87.909 227.285 87.199 228.039 86.534 C 229.281 85.425 231.189 84.36 234.073 84.36 C 238.377 84.36 241.793 86.534 241.793 92.923 L 241.793 102.196 L 244.677 102.196 L 244.677 107.742 L 234.118 107.742 L 234.118 94.343 C 234.118 92.214 233.275 91.326 231.545 91.326 C 228.128 91.326 226.62 94.875 226.62 98.069 L 226.62 102.196 L 229.504 102.196 L 229.504 107.742 L 216.061 107.742 L 216.061 102.195 L 216.06 102.195 L 216.06 102.195 Z " fill="rgb(255,255,251)"/><path d=" M 249.649 90.438 L 246.543 90.438 L 246.543 84.891 L 257.325 84.891 L 257.325 98.513 C 257.325 100.642 258.123 101.53 259.854 101.53 C 262.871 101.53 264.601 98.025 264.601 94.564 L 264.601 90.438 L 261.495 90.438 L 261.495 84.891 L 272.276 84.891 L 272.276 101.219 C 272.276 101.884 272.587 102.195 273.252 102.195 L 275.16 102.195 L 275.16 107.741 L 268.106 107.741 C 266.021 107.741 264.956 106.72 264.956 105.167 L 264.956 104.546 C 264.956 104.368 265 104.235 265 104.102 L 265 103.88 L 264.911 103.88 C 264.512 104.678 263.935 105.389 263.225 106.054 C 262.027 107.163 260.119 108.272 257.146 108.272 C 253.109 108.272 249.648 106.098 249.648 99.709 L 249.648 90.438 L 249.649 90.438 L 249.649 90.438 Z " fill="rgb(255,255,251)"/></g><path d=" M 131.628 65.641 C 106.842 53.473 92.515 52.336 44.254 66.365 C 22.811 72.598 8.943 72.308 0 69.629 L 0 88.088 C 11.67 85.843 29.767 85.702 55.139 94.411 C 85.594 104.865 110.335 107.171 129.943 103.709 C 131.04 100.762 131.628 97.602 131.628 94.358 L 131.628 65.641 L 131.628 65.641 Z  M 44.255 66.365 C 92.516 52.336 106.843 53.473 131.629 65.641 L 131.629 49.333 C 131.629 41.629 128.323 34.398 122.714 29.368 C 106.616 36.698 85.476 40.815 61.544 31.843 C 38.905 23.356 22.96 23.693 12.083 26.928 C 4.572 31.867 0.001 40.274 0.001 49.333 L 0.001 69.629 C 8.944 72.307 22.812 72.598 44.255 66.365 Z " fill-rule="evenodd" fill="rgb(54,190,247)"/><path d=" M 79.225 3.593 C 70.927 -1.198 60.703 -1.198 52.405 3.593 L 13.411 26.106 C 12.958 26.367 12.517 26.643 12.083 26.928 C 22.96 23.693 38.905 23.356 61.544 31.843 C 85.477 40.814 106.616 36.698 122.714 29.368 C 121.347 28.142 119.845 27.045 118.219 26.106 L 79.225 3.593 L 79.225 3.593 Z " fill="rgb(255,209,3)"/><path d=" M 55.14 94.412 C 29.768 85.703 11.671 85.844 0.001 88.089 L 0.001 94.359 C 0.001 103.941 5.113 112.795 13.411 117.586 L 52.405 140.099 C 60.703 144.89 70.927 144.89 79.225 140.099 L 118.219 117.586 C 123.708 114.417 127.801 109.469 129.944 103.71 C 110.336 107.171 85.595 104.865 55.14 94.412 Z " fill="rgb(248,6,104)"/><g id="XMLID_17_"><path d=" M 100.273 55.952 L 34.524 55.952 C 31.866 55.952 29.711 53.797 29.711 51.139 L 29.711 51.139 C 29.711 48.481 31.866 46.326 34.524 46.326 L 100.273 46.326 C 102.931 46.326 105.086 48.481 105.086 51.139 L 105.086 51.139 C 105.086 53.797 102.931 55.952 100.273 55.952 Z " fill="rgb(255,255,255)"/><path d=" M 100.273 75.204 L 34.524 75.204 C 31.866 75.204 29.711 73.049 29.711 70.391 L 29.711 70.391 C 29.711 67.733 31.866 65.578 34.524 65.578 L 100.273 65.578 C 102.931 65.578 105.086 67.733 105.086 70.391 L 105.086 70.391 C 105.086 73.049 102.931 75.204 100.273 75.204 Z " fill="rgb(255,255,255)"/><path d=" M 100.273 94.457 L 34.524 94.457 C 31.866 94.457 29.711 92.302 29.711 89.644 L 29.711 89.644 C 29.711 86.986 31.866 84.831 34.524 84.831 L 100.273 84.831 C 102.931 84.831 105.086 86.986 105.086 89.644 L 105.086 89.644 C 105.086 92.302 102.931 94.457 100.273 94.457 Z " fill="rgb(255,255,255)"/></g></g></g></g></g></svg>