<?xml version="1.0" ?><!DOCTYPE svg  PUBLIC '-//W3C//DTD SVG 1.1//EN'  'http://www.w3.org/Graphics/SVG/1.1/DTD/svg11.dtd'><svg enable-background="new 0 0 256 256" height="256px" id="Layer_1" version="1.1" viewBox="0 0 256 256" width="256px" xml:space="preserve" xmlns="http://www.w3.org/2000/svg" xmlns:xlink="http://www.w3.org/1999/xlink"><circle cx="128" cy="128" fill="#223139" r="120.136" stroke="#3D5A66" stroke-miterlimit="10" stroke-width="10"/><g><path d="M209.018,187.894c-0.137-4.442-3.773-8.004-8.25-8.004c-1.411,0-2.74,0.356-3.904,0.979   c-0.424-6.314-5.68-11.308-12.104-11.308c-3.12,0-5.963,1.177-8.113,3.112c-0.696-7.434-6.392-13.414-13.69-14.541   c-1.243-2.992-4.191-5.098-7.633-5.098c-4.563,0-8.263,3.699-8.263,8.264c0,1.035,0.198,2.021,0.547,2.936   c-2.142,2.756-3.422,6.215-3.422,9.975c0,0.524,0.028,1.044,0.076,1.557c-0.1-0.002-0.199-0.008-0.3-0.008   c-6.35,0-11.558,4.879-12.088,11.09c-0.871-0.742-1.998-1.191-3.232-1.191c-1.517,0-2.754,0.678-3.787,1.746   c0-0.01,0-0.017,0-0.025c0-6.702-5.434-12.136-12.136-12.136c-0.101,0-0.199,0.005-0.3,0.009c0.049-0.514,0.076-1.032,0.076-1.558   c0-3.761-1.279-7.219-3.422-9.974c0.348-0.915,0.547-1.901,0.547-2.937c0-4.564-3.699-8.263-8.263-8.263   c-3.441,0-6.391,2.104-7.633,5.098c-7.298,1.127-12.994,7.105-13.69,14.539c-2.148-1.935-4.993-3.111-8.112-3.111   c-6.424,0-11.679,4.992-12.105,11.309c-1.163-0.625-2.492-0.98-3.904-0.98c-4.563,0-8.263,3.699-8.263,8.263   c0,0.087,0.012,0.171,0.014,0.258l0.703,3.099c1.288,2.889,4.179,4.906,7.546,4.906c3.678,0,6.791-2.403,7.862-5.725   c2.152,1.953,5.011,3.143,8.147,3.143c5.704,0,10.486-3.938,11.785-9.239c2.983,3.593,7.485,5.882,12.521,5.882   c1.565,0,3.078-0.226,4.511-0.639c0.931,5.779,5.938,10.193,11.979,10.193c5.011,0,9.305-3.04,11.157-7.375   c0.634,2.029,2.527,3.501,4.766,3.501c1.872,0,3.503-1.032,4.357-2.558c1.944,4.105,6.119,6.947,10.963,6.947   c6.041,0,11.05-4.414,11.979-10.192c1.434,0.413,2.946,0.639,4.512,0.639c5.037,0,9.537-2.289,12.521-5.882   c1.299,5.303,6.081,9.238,11.785,9.238c2.966,0,5.676-1.072,7.783-2.84h0.475c1.16,3.162,4.188,5.422,7.75,5.422   c3.564,0,6.593-2.26,7.752-5.422L209.018,187.894z" fill="#4A5960"/><path d="M146,164.624c0,1.312-1.063,2.376-2.375,2.376h-31.25c-1.312,0-2.375-1.064-2.375-2.376v-6.248   c0-1.312,1.063-2.376,2.375-2.376h31.25c1.312,0,2.375,1.064,2.375,2.376V164.624z" fill="#6B0710"/><path d="M145.744,157.992c3.856-13.152,6.553-28.396,5.903-42.986c-1.167-26.141-19.245-51.298-24.819-51.298   c-5.575,0-23.394,29.644-23.394,55.811c0,11.959,2.824,25.911,6.599,38.473H145.744z" fill="#EFEEE4"/><path d="M151.645,115.006c-1.149-25.277-18.418-49.633-24.697-51.215v94.201h18.68   C149.559,144.84,152.308,129.597,151.645,115.006z" fill="#CECDC8"/><path d="M141.96,81c-5.626-11-12.158-17.812-15.132-17.812c-2.762,0-8.532,6.812-13.649,17.812H141.96z" fill="#8D050D"/><path d="M127.896,177.469c0,1.311,0.361,2.374-0.949,2.374l0,0c-1.313,0-0.95-1.063-0.95-2.374l-1.425-49.875   c0-1.313,1.063-2.375,2.375-2.375l0,0c1.311,0,2.375,1.063,2.375,2.375L127.896,177.469z" fill="#8D050D"/><path d="M124.598,127.594c0-1.313,0.402-2.375,2.402-2.375v54.624c-2,0-0.963-1.063-0.963-2.374L124.598,127.594z" fill="#A50717"/><path d="M127,81h-13.821C118.73,70,124,63.898,127,63.716V81z" fill="#A50717"/><circle cx="127.213" cy="100.282" fill="#2A3D44" r="11.479"/><rect fill="#37505B" height="20.424" transform="matrix(0.7072 -0.707 0.707 0.7072 -34.8643 119.3499)" width="4.275" x="124.515" y="91.553"/><rect fill="#37505B" height="20.424" transform="matrix(0.7074 -0.7068 0.7068 0.7074 -31.681 120.6258)" width="0.948" x="129.369" y="88.363"/><path d="M127.341,112.393c-6.503,0-11.794-5.29-11.794-11.793s5.291-11.793,11.794-11.793   s11.794,5.29,11.794,11.793S133.844,112.393,127.341,112.393z M127.341,91.656c-4.932,0-8.943,4.011-8.943,8.943   c0,4.931,4.012,8.943,8.943,8.943s8.944-4.013,8.944-8.943C136.285,95.667,132.272,91.656,127.341,91.656z" fill="#A50717"/><path d="M127,88.808v2.853c6,0.043,8.863,4.035,8.863,8.939c0,4.904-2.863,8.896-8.863,8.939v2.853   c7-0.044,11.714-5.316,11.714-11.792S134,88.852,127,88.808z" fill="#8D050D"/><path d="M201.983,188.934c-0.127-4.227-3.472-7.395-7.588-7.395c-1.3,0-2.521,0.311-3.592,0.885   c-0.391-5.811-5.225-10.41-11.133-10.41c-2.87,0-5.485,1.079-7.462,2.858c-0.641-6.836-5.879-12.339-12.593-13.376   c-1.143-2.752-3.854-4.689-7.02-4.689c-4.197,0-7.6,3.402-7.6,7.599c0,0.954,0.182,1.86,0.503,2.7   c-1.971,2.534-3.146,5.717-3.146,9.176c0,0.482,0.024,0.959,0.068,1.431c-0.092-0.002-0.183-0.007-0.275-0.007   c-5.841,0-10.629,4.486-11.118,10.201c-0.801-0.684-2.124-1.096-3.261-1.096c-1.393,0-2.768,0.623-3.768,1.605   c0-0.008,0-0.017,0-0.023c0-6.164-4.713-11.162-10.875-11.162c-0.094,0-0.042,0.005-0.133,0.007   c0.044-0.472,0.141-0.948,0.141-1.433c0-3.458-1.142-6.64-3.112-9.174c0.319-0.84,0.521-1.748,0.521-2.7   c0-4.198-3.395-7.6-7.591-7.6c-3.166,0-5.874,1.937-7.015,4.688c-6.715,1.037-11.95,6.537-12.591,13.373   c-1.977-1.779-4.591-2.862-7.461-2.862c-5.908,0-10.742,4.593-11.132,10.402c-1.071-0.575-2.292-0.901-3.592-0.901   c-4.197,0-7.6,3.434-7.6,7.633c0,0.08,0.01,0.27,0.013,0.27l0.646,3.17c1.185,2.114,3.845,4.319,6.941,4.319   c3.382,0,6.246-2.307,7.23-5.361c1.981,1.796,4.609,2.841,7.494,2.841c5.247,0,9.645-3.644,10.84-8.521   c2.744,3.304,6.884,5.398,11.517,5.398c1.44,0,2.831-0.214,4.15-0.594c0.854,5.315,5.461,9.372,11.018,9.372   c4.608,0,8.559-2.799,10.262-6.783c0.584,1.865,2.325,3.219,4.384,3.219c1.722,0,3.221-0.951,4.007-2.354   c1.789,3.774,5.628,6.39,10.084,6.39c5.557,0,10.162-4.06,11.018-9.374c1.319,0.38,2.71,0.587,4.15,0.587   c4.632,0,8.772-2.105,11.517-5.41c1.194,4.877,5.594,8.639,10.84,8.639c2.728,0,5.221-1.471,7.159-2.471h0.438   c1.064,2,3.85,5.039,7.128,5.039c3.277,0,6.063-2.848,7.129-4.961L201.983,188.934z" fill="#F2F2F2"/><path d="M104.939,116.985c-6.017,2.851-26.44,43.383-6.809,54.148c2.011-2.227,9.816-9.815,12.191-12.982   C109.181,153.367,104.622,143.11,104.939,116.985z" fill="#8D050D"/><path d="M104.951,122.709c-0.028-1.82-0.037-3.719-0.012-5.724c-6.017,2.851-26.44,43.383-6.809,54.148   c0.012-0.013,0.025-0.026,0.037-0.039C86.489,159.758,97.795,132.43,104.951,122.709z" fill="#A50717"/><path d="M150.756,116.985c6.016,2.851,26.441,43.383,6.808,54.148c-2.011-2.227-9.816-9.815-12.19-12.982   C146.514,153.367,151.072,143.11,150.756,116.985z" fill="#8D050D"/><path d="M150.597,122.709c0.028-1.82,0.037-3.719,0.013-5.724c6.016,2.851,26.441,43.383,6.808,54.148   c-0.012-0.013-0.025-0.026-0.036-0.039C169.059,159.758,157.752,132.43,150.597,122.709z" fill="#A50717"/><path d="M78.757,78.331c-8.364,0.345-8.646,0.625-8.99,8.989c-0.346-8.363-0.624-8.644-8.991-8.989   c8.367-0.346,8.646-0.625,8.991-8.99C70.111,77.706,70.393,77.985,78.757,78.331z" fill="#FBB03B"/><path d="M66.227,94.208c-3.788,0.156-3.915,0.283-4.071,4.071c-0.156-3.789-0.283-3.916-4.071-4.071   c3.788-0.156,3.915-0.283,4.071-4.072C62.312,93.925,62.438,94.052,66.227,94.208z" fill="#FBB03B"/><path d="M89.242,81.667c-3.79,0.156-3.916,0.283-4.072,4.071c-0.157-3.789-0.283-3.915-4.072-4.071   c3.789-0.157,3.915-0.283,4.072-4.071C85.326,81.384,85.452,81.51,89.242,81.667z" fill="#FBB03B"/><path d="M204.55,150.133c-4.297-7.186-4.677-7.298-12.19-3.608c7.184-4.296,7.297-4.677,3.606-12.19   c4.298,7.186,4.676,7.297,12.192,3.607C200.971,142.238,200.859,142.618,204.55,150.133z" fill="#FBB03B"/><path d="M184.616,146.701c-1.944-3.254-2.116-3.305-5.521-1.635c3.255-1.945,3.306-2.117,1.634-5.521   c1.945,3.254,2.118,3.306,5.522,1.634C182.997,143.126,182.945,143.297,184.616,146.701z" fill="#FBB03B"/><path d="M206.623,160.938c-1.946-3.254-2.117-3.305-5.521-1.635c3.255-1.945,3.306-2.117,1.635-5.521   c1.945,3.254,2.116,3.304,5.52,1.635C205.002,157.363,204.951,157.533,206.623,160.938z" fill="#FBB03B"/></g></svg>